<?xml version="1.0" encoding="UTF-8"?>
<svg id="Camada_1" xmlns="http://www.w3.org/2000/svg" viewBox="0 0 174 228">
  <defs>
    <style>
      .cls-1, .cls-2 {
        fill: none;
        stroke: #f7f7f7;
        stroke-miterlimit: 10;
        stroke-width: 10px;
      }

      .cls-2 {
        fill-rule: evenodd;
      }
    </style>
  </defs>
  <path class="cls-1" d="M169,61.76v110.87c-15.89,30.08-45.99,50.38-80.5,50.38-36.82,0-68.62-23.1-83.5-56.55V61.76C19.14,28.28,50.54,5,87,5s67.86,23.28,82,56.76Z"/>
  <g>
    <polygon class="cls-2" points="135.67 114 102.39 144.54 87.01 130.41 104.3 114.54 87.01 98.67 80.51 92.71 71.01 84.01 56.73 70.89 32.95 92.71 25.86 99.23 25.85 99.24 26.12 68.15 55.92 40.8 65.92 49.98 87.01 69.34 95.79 77.4 102.99 84.01 135.67 114"/>
    <polygon class="cls-2" points="87.01 158.67 65.92 178.02 55.92 187.2 25.33 159.13 25.58 129.62 56.73 158.2 71.61 144.54 87.01 158.67"/>
    <polygon class="cls-2" points="95.79 77.4 87.01 69.34 108.08 49.98 118.08 40.8 147.88 68.15 148.15 99.24 148.14 99.23 141.06 92.71 117.27 70.89 102.99 84.01 95.79 77.4"/>
    <polygon class="cls-2" points="148.67 159.13 118.08 187.2 108.08 178.02 87.01 158.67 71.61 144.54 38.33 114 71.01 84.01 80.51 92.71 87.01 98.67 69.7 114.54 87.01 130.41 102.39 144.54 117.27 158.2 148.42 129.62 148.67 159.13"/>
  </g>
</svg>